<?xml version="1.0" standalone="no"?>
<!DOCTYPE svg PUBLIC "-//W3C//DTD SVG 1.1//EN" "http://www.w3.org/Graphics/SVG/1.1/DTD/svg11.dtd" >
<!--
2013-9-30: Created.
-->
<svg>
<metadata>
Created by iconfont
</metadata>
<defs>

<font id="iconfont" horiz-adv-x="1024" >
  <font-face
    font-family="iconfont"
    font-weight="500"
    font-stretch="normal"
    units-per-em="1024"
    ascent="896"
    descent="-128"
  />
    <missing-glyph />
    
    <glyph glyph-name="x" unicode="x" horiz-adv-x="1001"
d="M281 543q-27 -1 -53 -1h-83q-18 0 -36.5 -6t-32.5 -18.5t-23 -32t-9 -45.5v-76h912v41q0 16 -0.5 30t-0.5 18q0 13 -5 29t-17 29.5t-31.5 22.5t-49.5 9h-133v-97h-438v97zM955 310v-52q0 -23 0.5 -52t0.5 -58t-10.5 -47.5t-26 -30t-33 -16t-31.5 -4.5q-14 -1 -29.5 -0.5
t-29.5 0.5h-32l-45 128h-439l-44 -128h-29h-34q-20 0 -45 1q-25 0 -41 9.5t-25.5 23t-13.5 29.5t-4 30v167h911zM163 247q-12 0 -21 -8.5t-9 -21.5t9 -21.5t21 -8.5q13 0 22 8.5t9 21.5t-9 21.5t-22 8.5zM316 123q-8 -26 -14 -48q-5 -19 -10.5 -37t-7.5 -25t-3 -15t1 -14.5
t9.5 -10.5t21.5 -4h37h67h81h80h64h36q23 0 34 12t2 38q-5 13 -9.5 30.5t-9.5 34.5q-5 19 -11 39h-368zM336 498v228q0 11 2.5 23t10 21.5t20.5 15.5t34 6h188q31 0 51.5 -14.5t20.5 -52.5v-227h-327z" />
    

    
    <glyph glyph-name="callback" unicode="&#58880;" d="M624.789 691.952l-39.583 39.584-365.646-365.721 365.646-365.679 39.583 39.583-326.126 326.12z"  horiz-adv-x="1024" />

    
    <glyph glyph-name="shopping-car" unicode="&#58921;" d="M891.113 685.322c16.93 0 30.116-2.491 39.45-7.468 9.456-4.977 16.054-11.071 20.040-18.419 3.976-7.34 5.726-15.058 5.47-23.395-0.364-8.337-1.362-15.435-3.232-21.403l-11.329-36.842c-5.724-18.541-12.324-38.952-19.53-61.229-7.22-22.277-14.318-44.306-21.294-66.207-6.964-21.906-12.312-39.201-15.92-51.774-7.84-26.506-17.928-44.926-29.996-55.256s-27.004-15.428-44.554-15.428h-476.769l13.563-89.608h457.859c28.998 0 43.558-13.564 43.558-40.824 0-13.314-2.868-24.764-8.592-34.346-5.846-9.584-17.174-14.438-34.104-14.438l-475.893 0c-12.202 0-22.277 2.988-30.493 8.962s-14.937 13.812-20.418 23.396c-5.469 9.584-9.832 20.036-13.187 31.362-3.354 11.329-5.845 21.907-7.717 31.861-0.62 3.98-2.236 13.563-4.97 28.871l-9.966 57.248-13.186 76.665-14.56 85.123c-11.449 67.081-24.514 141.752-39.086 224.013h-68.072c-9.078 0-16.674 2.491-22.775 7.468-5.968 4.977-10.951 10.95-14.937 17.92-3.974 6.97-6.721 14.438-8.204 22.405-1.495 7.961-2.248 15.302-2.248 21.901 0 13.314 4.108 24.271 12.324 32.857 8.094 8.586 19.166 12.943 33.106 12.943h91.721c12.069 0 21.779-1.993 29.121-5.973 7.219-3.986 12.944-8.963 17.174-14.937 4.229-5.973 7.341-12.324 9.091-18.917l4.594-16.924c1.13-5.353 2.37-12.822 3.61-22.405l3.609-29.369c1.872-11.947 3.61-24.514 5.481-37.834l621.264 0zM738.537 119.812c11.448 0 22.52-2.364 33.106-6.97 10.574-4.606 19.664-11.078 27.248-19.414 7.596-8.338 13.698-18.042 18.17-29.37 4.606-11.326 6.842-23.274 6.842-35.84 0-12.574-2.236-24.52-6.842-35.842-4.472-11.326-10.574-21.036-18.17-29.374-7.584-8.338-16.674-14.93-27.248-19.914-10.586-4.976-21.658-7.462-33.106-7.462-11.582 0-22.398 2.486-32.73 7.462-10.33 4.984-19.166 11.576-26.762 19.914s-13.684 18.048-18.168 29.374c-4.608 11.322-6.844 23.268-6.844 35.842 0 12.566 2.236 24.514 6.844 35.84 4.484 11.329 10.572 21.032 18.168 29.37 7.596 8.336 16.432 14.808 26.762 19.414 10.332 4.606 21.148 6.97 32.73 6.97M360.697 121.806c11.449 0 22.399-2.364 32.608-6.97 10.33-4.606 19.409-11.078 27.26-19.416 7.961-8.336 13.928-18.048 18.17-29.368 4.229-11.329 6.344-23.274 6.344-35.848 0-12.566-2.115-24.514-6.344-35.84-4.242-11.322-10.209-21.032-18.17-29.37-7.851-8.336-16.93-14.936-27.26-19.912-10.209-4.978-21.159-7.468-32.608-7.468-12.19 0-23.153 2.49-33.228 7.468-9.954 4.976-18.911 11.576-26.762 19.912-7.839 8.338-13.928 18.048-18.169 29.37-4.23 11.326-6.345 23.274-6.345 35.84 0 12.574 2.115 24.52 6.345 35.848 4.241 11.32 10.33 21.032 18.169 29.368 7.851 8.338 16.808 14.81 26.762 19.416 10.075 4.606 21.038 6.97 33.228 6.97z"  horiz-adv-x="1024" />

    
    <glyph glyph-name="search" unicode="&#58932;" d="M850.453 95.347l0.105 0.223-197.89 193.493c38.961 45.944 61.363 103.043 63.198 161.203 3.664 70.834-24.038 144.003-74.073 195.682-42.739 45.105-102.838 75.421-164.821 83.209-12.031 1.639-24.352 2.458-36.625 2.458-61.344 0-121.126-19.942-168.322-56.113-54.705-40.781-92.468-101.996-103.616-167.925-11.054-61.446 0.911-127.372 32.811-180.82 21.819-37.152 52.888-69.073 89.828-92.298 33.909-21.453 72.924-35.474 112.775-40.485 11.958-1.62 24.219-2.439 36.445-2.439 56.586 0 112.572 17.3 158.132 48.773l197.642-193.343 3.655-3.368 0.105 0.091c6.515-5.235 14.768-8.14 23.319-8.14 20.202 0 36.637 16.127 36.637 35.947 0 8.787-3.358 17.279-9.308 23.853M649.856 359.257c-32.378-64.734-97.46-112.073-169.899-123.548-33.909-5.773-69.646-3.986-102.941 5.139-64.972 17.433-120.583 63.58-148.808 123.528-32.677 66.559-28.602 150.391 10.387 213.6 34.702 58.404 95.873 99.427 163.56 109.707l4.802 0.71c2.525 0.409 5.069 0.799 7.555 1.082 8.369 0.858 16.882 1.286 25.282 1.286 34.569 0 68.716-7.283 98.811-21.085 55.059-24.691 98.955-70.579 120.409-125.929 23.529-59.109 20.125-128.061-9.157-184.488z"  horiz-adv-x="1024" />

    
    <glyph glyph-name="plus" unicode="&#58881;" d="M908.516-32.478h-114.112c-10.511 0-19.018 8.543-19.018 19.018 0 10.511 8.507 19.018 19.018 19.018h95.093v95.090c0 10.51 8.507 19.017 19.019 19.017 10.476 0 19.019-8.507 19.019-19.017v-114.108c0-10.475-8.543-19.018-19.019-19.018zM908.516 195.738c-10.512 0-19.019 8.544-19.019 19.018v114.109c0 10.51 8.507 19.017 19.019 19.017 10.476 0 19.019-8.507 19.019-19.017v-114.109c0-10.474-8.543-19.018-19.019-19.018zM908.516 423.954c-10.512 0-19.019 8.544-19.019 19.018v114.109c0 10.511 8.507 19.017 19.019 19.017 10.476 0 19.019-8.506 19.019-19.017v-114.108c0-10.475-8.543-19.019-19.019-19.019zM908.516 652.17c-10.512 0-19.019 8.543-19.019 19.018v95.090h-95.093c-10.511 0-19.018 8.543-19.018 19.018 0 10.511 8.507 19.018 19.018 19.018h114.113c10.476 0 19.019-8.507 19.019-19.018v-114.107c0-10.475-8.543-19.019-19.019-19.019zM680.291-32.478h-114.113c-10.511 0-19.017 8.543-19.017 19.018 0 10.511 8.506 19.018 19.017 19.018h114.113c10.475 0 19.019-8.507 19.019-19.018 0.001-10.475-8.544-19.018-19.019-19.018zM680.291 766.278h-114.113c-10.511 0-19.017 8.543-19.017 19.018 0 10.511 8.506 19.018 19.017 19.018h114.113c10.475 0 19.019-8.507 19.019-19.018 0.001-10.475-8.544-19.018-19.019-19.018zM658.894 423.954c20.988 0 38.038-17.012 38.038-38.035 0-20.987-17.050-38.035-38.038-38.035h-114.113v-114.109c0-20.987-17.050-38.035-38.038-38.035-21.024 0-38.037 17.048-38.037 38.035v114.109h-114.112c-21.025 0-38.037 17.048-38.037 38.035 0 21.023 17.013 38.035 38.037 38.035h114.112v114.108c0 21.023 17.013 38.035 38.037 38.035 20.988 0 38.038-17.012 38.038-38.035v-114.108h114.112zM452.066 766.278h-114.112c-10.512 0-19.018 8.543-19.018 19.018 0 10.511 8.506 19.018 19.018 19.018h114.112c10.475 0 19.019-8.507 19.019-19.018 0-10.475-8.543-19.018-19.019-19.018zM223.842-32.478h-114.113c-10.513 0-19.019 8.543-19.019 19.018v114.109c0 10.51 8.506 19.017 19.019 19.017 10.493 0 19.018-8.507 19.018-19.017v-95.090h95.094c10.493 0 19.018-8.507 19.018-19.018 0-10.477-8.524-19.019-19.018-19.019zM223.842 766.278h-95.094v-95.090c0-10.475-8.525-19.018-19.018-19.018-10.513 0-19.019 8.543-19.019 19.018v114.108c0 10.511 8.506 19.018 19.019 19.018h114.112c10.493 0 19.018-8.507 19.018-19.018 0-10.475-8.524-19.018-19.018-19.018zM109.729 576.098c10.493 0 19.018-8.506 19.018-19.017v-114.108c0-10.474-8.525-19.018-19.018-19.018-10.513 0-19.019 8.544-19.019 19.018v114.108c0 10.511 8.506 19.017 19.019 19.017zM109.729 347.884c10.493 0 19.018-8.507 19.018-19.017v-114.109c0-10.474-8.525-19.018-19.018-19.018-10.513 0-19.019 8.544-19.019 19.018v114.108c0 10.51 8.506 19.018 19.019 19.018zM337.953 5.559h114.112c10.475 0 19.019-8.507 19.019-19.018 0-10.475-8.543-19.018-19.019-19.018h-114.112c-10.512 0-19.018 8.543-19.018 19.018 0 10.51 8.506 19.018 19.018 19.018z"  horiz-adv-x="1024" />

    
    <glyph glyph-name="less" unicode="&#58882;" d="M224.937 804.114h-114.059c-10.507 0-19.010-8.503-19.010-19.009v-114.053c0-10.469 8.502-19.009 19.010-19.009 10.489 0 19.011 8.539 19.011 19.009v95.045h95.048c10.489 0 19.010 8.539 19.010 19.009-0.001 10.506-8.521 19.009-19.010 19.009zM338.994 766.097h114.058c10.471 0 19.010 8.539 19.010 19.009 0 10.507-8.539 19.009-19.010 19.009h-114.058c-10.507 0-19.010-8.503-19.010-19.009 0-10.469 8.502-19.009 19.010-19.009zM681.167 804.114h-114.057c-10.508 0-19.011-8.503-19.011-19.009 0-10.469 8.503-19.009 19.011-19.009h114.058c10.47 0 19.009 8.539 19.009 19.009 0 10.506-8.539 19.009-19.010 19.009zM909.283 804.114h-114.058c-10.508 0-19.009-8.503-19.009-19.009 0-10.469 8.501-19.009 19.009-19.009h95.048v-95.045c0-10.469 8.501-19.009 19.009-19.009 10.47 0 19.010 8.539 19.010 19.009v114.053c0.001 10.507-8.539 19.010-19.009 19.010zM909.283 576.008c-10.507 0-19.009-8.503-19.009-19.009v-114.053c0-10.47 8.501-19.009 19.009-19.009 10.47 0 19.010 8.539 19.010 19.009v114.052c0 10.507-8.54 19.010-19.010 19.010zM909.283 347.902c-10.507 0-19.009-8.503-19.009-19.011v-114.053c0-10.469 8.501-19.010 19.009-19.010 10.47 0 19.010 8.54 19.010 19.010v114.053c0 10.508-8.54 19.011-19.010 19.011zM909.283 119.794c-10.507 0-19.009-8.501-19.009-19.008v-95.045h-95.048c-10.507 0-19.009-8.501-19.009-19.008 0-10.469 8.501-19.009 19.009-19.009h114.058c10.47 0 19.010 8.539 19.010 19.009v114.052c-0.001 10.507-8.541 19.009-19.011 19.009zM681.167 5.741h-114.057c-10.508 0-19.011-8.501-19.011-19.008 0-10.469 8.503-19.009 19.011-19.009h114.058c10.47 0 19.009 8.539 19.009 19.009 0 10.507-8.539 19.008-19.010 19.008zM453.052 5.741h-114.058c-10.507 0-19.010-8.501-19.010-19.008 0-10.469 8.502-19.009 19.010-19.009h114.058c10.471 0 19.010 8.539 19.010 19.009 0 10.507-8.539 19.008-19.010 19.008zM224.937 5.741h-95.048v95.045c0 10.507-8.521 19.008-19.011 19.008-10.507 0-19.010-8.501-19.010-19.008v-114.053c0-10.469 8.502-19.009 19.010-19.009h114.059c10.489 0 19.010 8.539 19.010 19.009-0.001 10.507-8.521 19.009-19.010 19.009zM110.878 195.83c10.489 0 19.011 8.54 19.011 19.010v114.052c0 10.508-8.521 19.011-19.011 19.011-10.508 0-19.010-8.503-19.010-19.011v-114.052c0-10.469 8.502-19.010 19.010-19.010zM110.878 423.937c10.489 0 19.011 8.539 19.011 19.009v114.053c0 10.507-8.521 19.009-19.011 19.009-10.508 0-19.010-8.503-19.010-19.009v-114.053c0-10.47 8.502-19.009 19.010-19.009zM355.628 347.902h304.155c20.978 0 38.019 17.041 38.019 38.017 0 21.013-17.043 38.017-38.019 38.017h-304.155c-21.014 0-38.018-17.004-38.018-38.017-0.001-20.977 17.004-38.017 38.018-38.017z"  horiz-adv-x="1024" />

    
    <glyph glyph-name="duigou1" unicode="&#58893;" d="M1024 602.208l-68.672 68.672L350.112 65.728l-281.44 281.44L0 278.496l340.128-340.128 9.632-9.28 10.272 9.28L1024 602.208z"  horiz-adv-x="1024" />

    
    <glyph glyph-name="my" unicode="&#58887;" d="M521.424 804.724c-238.699 0-432.193-193.46-432.193-432.193 0-238.67 193.494-432.193 432.193-432.193 238.702 0 432.193 193.523 432.193 432.193-0.001 238.733-193.493 432.193-432.193 432.193zM804.832 90.061c-36.657 83.381-109.39 147.099-198.603 171.298 54.398 29.951 91.274 87.787 91.274 154.287 0 97.262-78.831 176.078-176.078 176.078-97.245 0-176.078-78.816-176.078-176.078 0-68.001 38.627-126.901 95.105-156.229-88.571-26.26-160.149-91.726-194.836-176.361-76.472 72.878-124.37 175.487-124.37 289.475 0 221.035 179.16 400.178 400.178 400.178 221.021 0 400.178-179.143 400.178-400.178 0.001-110.268-44.627-210.094-116.769-282.47z"  horiz-adv-x="1024" />

    
    <glyph glyph-name="del" unicode="&#59018;" d="M936.224 896l-424.224-424.224-424.224 424.224-87.776-87.776 424.224-424.224-424.224-424.224 87.776-87.776 424.224 424.256 424.224-424.256 87.776 87.776-424.256 424.224 424.256 424.224z"  horiz-adv-x="1024" />

    
    <glyph glyph-name="add" unicode="&#59034;" d="M853.333 361.244h-318.578v-318.578c0-12.584-10.172-22.756-22.756-22.756s-22.756 10.172-22.756 22.756v318.578h-318.578c-12.584 0-22.756 10.172-22.756 22.756s10.172 22.756 22.756 22.756h318.578v318.578c0 12.561 10.172 22.756 22.756 22.756s22.756-10.194 22.756-22.756v-318.578h318.578c12.584 0 22.756-10.172 22.756-22.756s-10.172-22.756-22.756-22.756z"  horiz-adv-x="1024" />

    
    <glyph glyph-name="order" unicode="&#58945;" d="M878.933 657.067h-93.867c-8.533 136.533-128 238.933-264.533 238.933-136.533 0-256-102.4-256-238.933h-119.467l-102.4-785.067h938.667l-102.4 785.067zM520.533 827.733c102.4 0 179.2-76.8 187.733-170.667l-375.467 0c8.533 93.867 85.333 170.667 187.733 170.667zM307.2 409.6c-25.6 0-51.2 17.067-51.2 42.667s17.067 42.667 51.2 42.667c25.6 0 42.667-17.067 42.667-42.667 0-25.6-17.067-42.667-42.667-42.667zM725.333 409.6c-25.6 0-42.667 17.067-42.667 42.667s17.067 51.2 42.667 51.2c25.6 0 51.2-17.067 51.2-42.667s-25.6-51.2-51.2-51.2z"  horiz-adv-x="1024" />

    
    <glyph glyph-name="quan" unicode="&#59208;" d="M512-147.021485c-246.509044 0-447.072649 200.563605-447.072649 447.072649s200.563605 447.072649 447.072649 447.072649 447.072649-200.563605 447.072649-447.072649S758.509044-147.021485 512-147.021485zM512 703.838913c-222.666533 0-403.890077-181.121215-403.890077-403.890077s181.121215-403.890077 403.890077-403.890077 403.890077 181.121215 403.890077 403.890077S734.666533 703.838913 512 703.838913z"  horiz-adv-x="1024" />

    
    <glyph glyph-name="xiangyou" unicode="&#58909;" d="M384 570.144 432.32 620l337.408-335.232-337.408-335.232L384-0.608l283.648 285.376L384 570.144z"  horiz-adv-x="1024" />

    
    <glyph glyph-name="gouwuche" unicode="&#58937;" d="M952.0329765925926 688.4972468148148c-17.161936592592593 18.038177185185184-40.58620207407407 27.934113185185186-66.2653914074074 27.934113185185186h-580.4790518518518c-18.414402370370368 0-33.57142281481481-14.029558518518519-33.57142281481481-31.191495111111113s15.032016592592592-31.191495111111113 33.57142281481481-31.191495111111113h580.3540479999999c6.263542518518518 0 11.774634666666667-2.2549238518518515 16.15947851851852-6.764771555555555 6.638554074074073-7.014779259259259 9.770932148148146-18.539406222222222 8.51846637037037-29.06157511111111l-52.86206577777777-281.0948266666667c-1.8786986666666665-13.904554666666666-15.908257185185185-26.055414518518518-32.56896474074074-26.18041837037037l-454.7130405925926-31.191495111111113c-18.28818488888889-1.3774696296296296-32.192739555555555-16.15947851851852-30.940273777777776-33.44641896296296 1.252465777777778-16.409486222222224 16.034474666666664-28.936571259259257 33.44641896296296-28.936571259259257 0.7512367407407408 0 1.7536948148148148 0 2.631149037037037 0.2500077037037037l452.3331128888889 30.940273777777776c48.352218074074074 0 90.69211496296295 35.45012148148148 96.45442844444445 79.16748799999999l52.86206577777777 281.0948266666667c3.632393481481481 30.189037037037036-5.261084444444444 58.9993908148148-24.927952592592593 79.66871703703703zM875.1204124444444 154.99172977777778h-544.5277013333333c-14.15456237037037 0-28.31033837037037 12.150859851851852-30.189037037037036 26.681647407407407l-57.120692148148144 373.91686162962964-32.192739555555555 173.36699259259257c-5.887317333333334 45.34605748148147-48.85344711111111 80.92118281481481-97.70689422222222 80.92118281481481h-42.71490844444444c-18.414402370370368 0-33.57142281481481-14.029558518518519-33.57142281481481-31.191495111111113s15.032016592592592-31.191495111111113 33.57142281481481-31.191495111111113h42.71490844444444c14.530787555555555 0 29.437800296296295-12.275863703703703 31.441502814814815-27.557888l32.31895703703704-174.1182293333333 56.87068444444445-372.41317451851853c5.887317333333334-45.34605748148147 48.352218074074074-80.92118281481481 96.70443614814815-80.92118281481481h544.4026974814815c18.66441007407407 0 33.57142281481481 14.029558518518519 33.57142281481481 31.191495111111113 0 17.411944296296294-14.90701274074074 31.31649896296296-33.57142281481481 31.31649896296296zM278.98311111111104-0.963318518518463c0 0 0 0 0 0 0-33.3456877037037 27.03238637037037-60.37807407407407 60.37807407407407-60.37807407407407 33.3456877037037 0 60.37807407407407 27.03238637037037 60.37807407407407 60.37807407407407 0 0 0 0 0 0 0 0 0 0 0 0 0 33.3456877037037-27.03238637037037 60.37807407407407-60.37807407407407 60.37807407407407-33.3456877037037 0-60.37807407407407-27.03238637037037-60.37807407407407-60.37807407407407s0 0 0 0zM748.3519431111112-0.963318518518463c0 0 0 0 0 0 0-33.3456877037037 27.03238637037037-60.37807407407407 60.37807407407407-60.37807407407407 33.3456877037037 0 60.37807407407407 27.03238637037037 60.37807407407407 60.37807407407407 0 0 0 0 0 0 0 0 0 0 0 0 0 33.3456877037037-27.03238637037037 60.37807407407407-60.37807407407407 60.37807407407407-33.3456877037037 0-60.37807407407407-27.03238637037037-60.37807407407407-60.37807407407407s0 0 0 0z"  horiz-adv-x="1024" />

    
    <glyph glyph-name="eye" unicode="&#58919;" d="M511.998 175.488c152.428 0 359.183 155.773 373.55 198.596-5.606 46.913-200.197 216.57-373.55 216.57-164.905 0-373.649-135.135-373.669-217.605 4.339-40.627 204.654-197.561 373.669-197.561M511.998 133.953c-173.163 0-415.166 162.972-415.166 238.74 0 120.066 243.452 259.501 415.166 259.501 187.905 0 415.171-182.613 415.171-259.501-0-63.976-248.399-238.74-415.171-238.74v0 0 0zM511.998 279.279c57.209 0 103.795 46.587 103.795 103.795s-46.586 103.79-103.795 103.79-103.79-46.581-103.79-103.79 46.581-103.795 103.79-103.795M511.998 237.743c-80.272 0-145.33 65.059-145.33 145.331s65.058 145.33 145.33 145.33c80.277 0 145.33-65.058 145.33-145.33-0-80.272-65.053-145.331-145.33-145.331v0 0 0zM511.998 237.743z"  horiz-adv-x="1024" />

    
    <glyph glyph-name="delete8e" unicode="&#58999;" d="M920.771 624.705c0-10.452-8.129-18.58-18.58-18.58l-55.742 0 0-550.448c0-63.871-41.807-118.45-92.902-118.45L270.454-62.773c-51.097 0-92.903 52.258-92.903 116.128L177.551 606.125 121.81 606.125c-10.452 0-18.581 8.128-18.581 18.58l0 37.161c0 10.452 8.128 18.581 18.581 18.581l179.418 0 40.645 96.967c11.612 28.451 46.451 51.677 77.225 51.677l185.805 0c30.773 0 65.613-23.226 77.225-51.677l40.646-96.967 179.418 0c10.451 0 18.58-8.129 18.58-18.581L920.772 624.705zM772.127 606.125 251.873 606.125l0-550.448c0-27.87 15.678-44.128 18.581-44.128l483.093 0c2.902 0 18.58 16.258 18.58 44.128L772.127 606.125zM400.517 141.612c0-10.452-8.129-18.58-18.581-18.58l-37.161 0c-10.452 0-18.58 8.128-18.58 18.58L326.195 476.062c0 10.452 8.128 18.58 18.58 18.58l37.161 0c10.452 0 18.581-8.128 18.581-18.58L400.517 141.612zM642.063 680.447l-27.869 67.935c-1.742 2.323-6.969 5.807-9.869 6.387L420.259 754.769c-3.484-0.581-8.128-4.064-9.871-6.387l-28.451-67.935L642.063 680.447zM549.161 141.612c0-10.452-8.128-18.58-18.58-18.58l-37.162 0c-10.452 0-18.58 8.128-18.58 18.58L474.839 476.062c0 10.452 8.128 18.58 18.58 18.58l37.162 0c10.452 0 18.58-8.128 18.58-18.58L549.161 141.612zM697.805 141.612c0-10.452-8.129-18.58-18.58-18.58l-37.162 0c-10.449 0-18.578 8.128-18.578 18.58L623.485 476.062c0 10.452 8.129 18.58 18.578 18.58l37.162 0c10.451 0 18.58-8.128 18.58-18.58L697.805 141.612z"  horiz-adv-x="1024" />

    
    <glyph glyph-name="iconset0413" unicode="&#59172;" d="M725.333333 170.666667c-6.4 0-10.666667-2.133333-14.933333-6.4L533.333333-12.8 533.333333 832c0 12.8-8.533333 21.333333-21.333333 21.333333s-21.333333-8.533333-21.333333-21.333333l0-844.8-177.066667 177.066667C309.333333 168.533333 305.066667 170.666667 298.666667 170.666667c-12.8 0-21.333333-8.533333-21.333333-21.333333 0-6.4 2.133333-10.666667 6.4-14.933333l213.333333-213.333333c4.266667-4.266667 8.533333-6.4 14.933333-6.4 6.4 0 10.666667 2.133333 14.933333 6.4l213.333333 213.333333c4.266667 4.266667 6.4 8.533333 6.4 14.933333C746.666667 162.133333 738.133333 170.666667 725.333333 170.666667z"  horiz-adv-x="1024" />

    
    <glyph glyph-name="scan" unicode="&#58965;" d="M140.700285 661.913408c0 51.033169 41.371326 92.404494 92.404494 92.404494l167.436464 0 0 40.375131L223.732494 794.693034c-68.038472 0-123.194487-55.156015-123.194487-123.194487L100.538007 493.523895l40.162277 0L140.700285 661.913408zM879.93624 661.913408L879.93624 493.523895l41.899625 0L921.835865 671.498547c0 68.038472-55.156015 123.194487-123.194487 123.194487L619.136479 794.693034l0-40.375131 168.395266 0C838.564914 754.317903 879.93624 712.947536 879.93624 661.913408zM141.36761 106.086592L141.36761 274.47610499999996l-40.162277 0 0-177.974652c0-68.038472 55.156015-123.194487 123.194487-123.194487l176.80779 0 0 40.375131L233.772105 13.682096999999999C182.737978 13.682096999999999 141.36761 55.052463999999986 141.36761 106.086592zM880.603566 106.086592c0-51.033169-41.371326-92.404494-92.404494-92.404494L619.803805 13.682096999999999l0-40.375131 179.504899 0c68.038472 0 123.194487 55.156015 123.194487 123.194487L922.503191 274.47610499999996l-41.899625 0L880.603566 106.086592zM926.69603 399.561348L95.677843 399.561348c-12.179655 0-22.052434-9.872779-22.052434-22.052434s9.872779-22.052434 22.052434-22.052434l831.018187 0c12.179655 0 22.052434 9.872779 22.052434 22.052434S938.875685 399.561348 926.69603 399.561348z"  horiz-adv-x="1024" />

    
    <glyph glyph-name="icon1460189545542" unicode="&#58928;" d="M1007.0720000000001 373.52L512.016 836.848 16.959999999999923 374.88c-9.68-9.04-10.224-24.24-1.168-33.92 9.04-9.68 24.24-10.224 33.92-1.168l462.272 431.36 462.28799999999995-432.67199999999997c4.64-4.336 10.527999999999999-6.4799999999999995 16.4-6.4799999999999995 6.4 0 12.8 2.544 17.52 7.599999999999999C1017.248 349.28 1016.752 364.46400000000017 1007.0720000000001 373.52zM856 364.0000000000001c-13.248 0-24-10.752-24-24l0-368L640-28 640 228 384 228l0-256L192-28 192 340c0 13.248-10.736 24-24 24S144 353.24800000000005 144 340l0-416 288 0L432 180l160 0 0-256 288 0L880 340C880 353.24800000000005 869.248 364.0000000000001 856 364.0000000000001zM688 708l144 0 0-128c0-13.263999999999998 10.752-24 24-24S880 566.736 880 580L880 756 688 756c-13.248 0-24-10.736-24-24S674.752 708 688 708z"  horiz-adv-x="1024" />

    
    <glyph glyph-name="triangle-down" unicode="&#58920;" d="M883.705 547.258l-737.358 0 368.677-421.461 368.681 421.461z"  horiz-adv-x="1024" />

    
    <glyph glyph-name="3vline" unicode="&#58910;" d="M191.348026 705.907571l65.119113 0 0-642.10929-65.119113 0 0 642.10929ZM475.953016 705.907571l65.119113 0 0-642.10929-65.119113 0 0 642.10929ZM767.981069 705.907571l65.119113 0 0-642.10929-65.119113 0 0 642.10929Z"  horiz-adv-x="1024" />

    
    <glyph glyph-name="3hline" unicode="&#58922;" d="M191.169971 129.096473l642.10929 0 0-65.119113-642.10929 0 0 65.119113ZM191.169971 413.701462l642.10929 0 0-65.119113-642.10929 0 0 65.119113ZM191.169971 705.729515l642.10929 0 0-65.119113-642.10929 0 0 65.119113Z"  horiz-adv-x="1024" />

    
    <glyph glyph-name="arrow-down" unicode="&#58914;" d="M526.710027 186.977741l361.434819 363.388311c6.653537 6.64842 4.599761 20.47738-2.049682 27.131941-6.658653 6.64842-21.474081 7.717775-28.132734 1.063215L510.986927 232.634594l-346.981642 347.913874c-6.653537 6.649444-22.517853 4.614088-29.17139-2.036379-6.650467-6.653537-5.643534-23.542182 1.004887-30.195719l358.817202-358.774223c0.562818-0.947582 1.193175-1.794879 1.910513-2.511193C503.225149 180.381509 520.05649 180.323181 526.710027 186.977741L526.710027 186.977741zM526.710027 186.977741"  horiz-adv-x="1024" />

    
    <glyph glyph-name="lock" unicode="&#58927;" d="M507.3536 338.7712c-38.87872 0-70.49472-31.6224-70.49472-70.47552 0-15.47648 4.92288-30.11584 14.2272-42.44352 0.19968-0.288 0.38272-0.50304 0.61824-0.76032 17.40672-20.32384 18.69312-34.80064 18.76352-36.10624l0-40.3008c0-20.36096 16.56064-36.88576 36.90496-36.88576 20.35712 0 36.91904 16.5248 36.91904 36.88576l0 41.04704c0 0.45312-0.0192 0.92032-0.07296 1.37216-0.0192 0.03712 0.09216 0 0.09216 0.05632 0.08576 0.92288 0.3968 2.89408 1.376 5.7536 1.88032 5.75616 6.3488 15.19872 16.8128 27.45472 0.14208 0.19712 0.32512 0.38272 0.43264 0.54656 9.78944 12.46464 14.92864 27.48672 14.92864 43.36C577.84704 307.1488 546.22464 338.7712 507.3536 338.7712L507.3536 338.7712 507.3536 338.7712zM537.97248 244.82176c-24.6464-28.9792-25.8624-49.70112-25.62432-55.5072l0-40.59648c0-2.73152-2.24128-4.99072-4.99456-4.99072s-4.99584 2.26048-4.99584 4.99072l0 40.47232c0 3.0016-0.8128 26.62144-26.09664 56.26496-4.90368 6.63936-7.49184 14.51264-7.49184 22.8544 0 21.2672 17.30304 38.58944 38.58432 38.58944 21.28384 0 38.60352-17.32224 38.60352-38.58944C545.95712 259.73632 543.20512 251.62496 537.97248 244.82176L537.97248 244.82176 537.97248 244.82176zM537.97248 244.82176M775.13088 474.01344l-39.06944 0 0 102.38464c0 0.68352-0.0576 1.3376-0.16512 2.02624-6.9312 54.40256-33.50016 104.51584-74.7072 141.056-41.61024 36.89856-95.1616 57.1904-150.79296 57.1904-60.7552 0-117.85472-23.6544-160.80384-66.62016-42.96576-42.944-66.60096-100.02688-66.60096-160.76416l0-75.27168-43.41888 0c-30.00576 0-54.4192-24.43264-54.4192-54.42048l0-385.61536c0-30.04544 24.41344-54.43712 54.4192-54.43712l332.50304 0c0.45184 0 0.95872 0.01792 1.41056 0.05248l200.2176 0c0.4928-0.03456 0.96384-0.05248 1.42976-0.05248 30.0096 0 54.44224 24.39296 54.44224 54.43712L829.57568 419.59296C829.55392 449.5808 805.14176 474.01344 775.13088 474.01344L775.13088 474.01344 775.13088 474.01344zM797.64864 33.9776c0-11.87072-9.16096-21.5872-20.81664-22.47808l-0.11008 0L567.18464 11.49952c-0.47232 0-0.97664-0.01536-1.44896-0.07424L239.5712 11.42528c-12.43392 0-22.52928 10.13504-22.52928 22.55104L217.04192 419.59296c0 12.416 10.11456 22.51648 22.52928 22.51648l59.38304 0.01792c0.77568 0 1.57312 0.07168 2.368 0.23552 0.832-0.18176 1.7216-0.25344 2.62656-0.25344l417.82784 0 0.18048 31.904L314.88128 474.01344l0 75.29088c0 52.17664 20.3392 101.31328 57.2608 138.21312 36.92032 36.93824 86.01728 57.26336 138.2528 57.26336 47.84896 0 93.89184-17.4464 129.61792-49.13792 35.2192-31.21664 57.96864-73.87392 64.15616-120.25856l0-116.2432c0-1.43232 0.18176-2.84288 0.56192-4.25216l0.28928-1.05472c1.8816-6.89408 8.21248-11.70688 15.38432-11.70688l54.7264 0c12.41984 0 22.51776-10.1184 22.51776-22.5152L797.64864 33.9776 797.64864 33.9776 797.64864 33.9776zM797.64864 33.9776"  horiz-adv-x="1024" />

    
    <glyph glyph-name="gantanhao-copy" unicode="&#58908;" d="M512.601 773.785c-215.978 0-391.058-175.082-391.058-391.058 0-215.978 175.087-391.065 391.058-391.065 215.978 0 391.065 175.087 391.065 391.065 0 215.978-175.087 391.058-391.065 391.058v0zM578.411 643.515l-18.848-369.43h-94.247l-18.849 369.43h131.943zM510.164 98.525c-41.29 0-65.524 29.789-65.524 65.54 0 38.308 27.823 66.398 66.42 66.398 39.492 0 65.517-28.089 65.517-66.398-0.002-37.45-26.026-65.54-66.413-65.54v0z"  horiz-adv-x="1024" />

    
    <glyph glyph-name="weibiaoti3" unicode="&#58948;" d="M250.61131 1.877798l130.693914 0 0 130.695636-130.693914 0L250.61131 1.877798zM294.159879 89.076519l43.596778 0 0-43.576117-43.596778 0L294.159879 89.076519zM250.61131 176.173656l130.693914 0 0 130.766229-130.693914 0L250.61131 176.173656zM294.159879 263.289732l43.596778 0 0-43.545125-43.596778 0L294.159879 263.289732zM468.478119 437.583868l304.934676 0 0-43.5985-304.934676 0 0 43.5985ZM468.478119 263.289732l304.934676 0 0-43.545125-304.934676 0 0 43.545125ZM468.478119 89.076519l304.934676 0 0-43.576117-304.934676 0 0 43.576117ZM250.61131 350.438522l130.693914 0 0 130.719741-130.693914 0L250.61131 350.438522zM294.159879 437.583868l43.596778 0 0-43.5985-43.596778 0L294.159879 437.583868zM819.011983 698.245113l-78.441831 0-0.101584 5.928032c-8.855031 43.774119-47.648088 76.740728-94.047897 76.740728l-19.111577 0c0 63.608837-51.602979 115.086127-115.185989 115.086127-63.634663 0-115.185989-51.475568-115.185989-115.086127l-19.084028 0c-46.475567 0-85.246241-32.942504-94.09955-76.740728l0.032714-5.928032L204.96219 698.245113c-42.648086 0-77.315797-34.767574-77.315797-77.439764l0-671.47922c0-42.623981 34.669433-77.317519 77.315797-77.317519l614.049793 0c42.648086 0 77.341624 34.693538 77.341624 77.317519L896.353607 620.80707C896.353607 663.477539 861.660069 698.245113 819.011983 698.245113zM512.124828 838.522364c31.790644 0 57.556838-25.814403 57.556838-57.606769 0-31.716608-25.766193-57.529289-57.556838-57.529289-31.76654 0-57.556838 25.812681-57.556838 57.529289C454.569712 812.707961 480.358288 838.522364 512.124828 838.522364zM854.332243-50.67215c0-19.461095-15.859165-35.296155-35.32026-35.296155L204.96219-85.968305c-19.485199 0-35.294433 15.83506-35.294433 35.296155L169.667757 620.80707c0 19.509304 15.809234 35.394296 35.294433 35.394296l79.053057 0 0.365014-67.162557 458.040788 0-1.138086 67.162557 77.730742 0c19.461095 0 35.32026-15.884992 35.32026-35.394296L854.333965-50.67215z"  horiz-adv-x="1024" />

    
    <glyph glyph-name="edit" unicode="&#59332;" d="M196.697299 754.970384c-48.009313 0-87.07784-39.068527-87.07784-87.07784l0-628.61856c0-48.009313 39.068527-87.07784 87.07784-87.07784l565.762122 0c47.991251 0 87.041716 39.068527 87.041716 87.07784L849.501138 542.161607c0 13.347962-10.855379 24.203341-24.203341 24.203341s-24.203341-10.855379-24.203341-24.203341l0-502.851498c0-21.31339-17.339707-38.653097-38.653097-38.653097L196.697299 0.657012c-21.31339 0-38.653097 17.339707-38.653097 38.653097L158.044203 667.910606c0 21.31339 17.339707 38.653097 38.653097 38.653097l440.031186 0c13.347962 0 24.203341 10.855379 24.203341 24.203341s-10.855379 24.203341-24.203341 24.203341L196.697299 754.970384zM259.553737 314.903074c-13.347962 0-24.203341-10.855379-24.203341-24.203341 0-6.484328 2.510645-12.553225 7.08038-17.122961 4.569735-4.569735 10.638633-7.08038 17.122961-7.08038l377.174748 0c6.484328 0 12.553225 2.510645 17.122961 7.08038 4.569735 4.569735 7.08038 10.638633 7.08038 17.122961s-2.510645 12.553225-7.08038 17.122961c-4.569735 4.569735-10.638633 7.08038-17.122961 7.08038L259.553737 314.903074zM890.141076 815.83998c-6.466266 0-12.535163-2.510645-17.104898-7.098442L560.686646 496.392006c-4.569735-4.569735-7.098442-10.656695-7.098442-17.104898s2.510645-12.535163 7.098442-17.104898 10.656695-7.098442 17.104898-7.098442c6.466266 0 12.553225 2.510645 17.141023 7.098442L907.282098 774.531741c4.569735 4.569735 7.098442 10.656695 7.098442 17.104898 0 6.448203-2.510645 12.535163-7.098442 17.104898C902.694301 813.311273 896.607341 815.83998 890.141076 815.83998zM259.553737 503.490449c-13.347962 0-24.203341-10.855379-24.203341-24.203341s10.855379-24.203341 24.203341-24.203341l188.605436 0c13.347962 0 24.203341 10.855379 24.203341 24.203341s-10.855379 24.203341-24.203341 24.203341L259.553737 503.490449z"  horiz-adv-x="1024" />

    
    <glyph glyph-name="home_list" unicode="&#58883;" d="M810.634 742.963h-89.59v59.726h-80.438c-25.866 35.556-73.479 59.728-128.607 59.728-55.126 0-102.739-24.172-128.605-59.728h-80.442v-59.726h-89.591c-65.97 0-119.452-53.483-119.452-119.459v-597.268c0-65.975 53.482-119.452 119.452-119.452h597.271c65.973 0 119.454 53.476 119.454 119.452v597.268c0.001 65.977-53.479 119.459-119.453 119.459zM362.68399999999997 742.963h66.362c0 32.983 37.14 59.726 82.954 59.726s82.954-26.741 82.954-59.726h66.364v-119.459h-298.633v119.459zM870.362 26.236000000000104c0-32.985-26.74-59.728-59.727-59.728h-597.271c-32.986 0-59.724 26.743-59.724 59.728v597.268c0 32.983 26.739 59.728 59.724 59.728h89.591v-119.454h418.09v119.454h89.59c32.987 0 59.727-26.743 59.727-59.728v-597.268zM721.042 145.69299999999998h-418.089c-16.492 0-29.862-13.372-29.862-29.867 0-16.491 13.369-29.862 29.862-29.862h418.089c16.495 0 29.865 13.372 29.865 29.862 0 16.495-13.369 29.867-29.865 29.867zM721.042 444.327h-418.089c-16.492 0-29.862-13.372-29.862-29.868999999999996 0-16.489 13.369-29.862 29.862-29.862h418.089c16.495 0 29.865 13.374 29.865 29.862 0 16.497-13.369 29.868999999999996-29.865 29.868999999999996zM721.042 295.01h-418.089c-16.492 0-29.862-13.374-29.862-29.867 0-16.491 13.369-29.862 29.862-29.862h418.089c16.495 0 29.865 13.372 29.865 29.862 0 16.493-13.369 29.867-29.865 29.867z"  horiz-adv-x="1024" />

    
    <glyph glyph-name="demand" unicode="&#59206;" d="M955.223 460.8l-116.972 107.756c0.522 3.333 0 6.733 0 10.209v149.243c0 34.345-26.726 62.188-59.689 62.188s-59.684-27.832-59.684-62.188v-51.087l-153.789 140.646c-30.638 31.928-80.317 31.928-110.961 0l-385.352-346.829c-30.643-31.923-30.643-78.72 0-110.659l105.836-43.715v-317.763c0-43.971 34.202-79.611 76.39-79.611h515.63c42.189 0 76.401 35.64 76.401 79.611v306.755l112.169 44.795c30.664 31.923 30.664 78.705 0.020 110.648v0M651.315 442.854c26.604 0 48.179-22.17 48.179-49.521 0-27.346-21.576-49.505-48.179-49.505s-48.174 22.159-48.174 49.505c0 27.351 21.571 49.521 48.174 49.521v0M372.685 442.854c26.614 0 48.179-22.17 48.179-49.521 0-27.346-21.571-49.505-48.179-49.505-26.614 0-48.184 22.159-48.184 49.505 0 27.351 21.571 49.521 48.184 49.521v0M744.105 166.195c-55.987-74.87-140.728-130.857-232.489-130.857-0.051 0-0.102 0-0.154 0s-0.092 0-0.143 0c-90.778 0-174.976 55.265-230.968 128.799-11.085 14.577-8.602 35.589 5.571 46.966 5.811 4.716 12.718 7.035 19.594 7.153 9.923 0.215 19.825-4.209 26.419-12.861 43.515-57.18 108.959-89.974 179.523-90.025 71.316 0.036 137.175 33.398 180.695 91.576 6.528 8.735 16.425 13.261 26.353 13.092 6.851-0.031 13.747-2.284 19.604-6.917 14.275-11.284 16.983-32.307 5.996-46.925v0M744.105 166.195z"  horiz-adv-x="1024" />

    
    <glyph glyph-name="delete" unicode="&#58906;" d="M409.479 190.951v322.104c0 8.102-6.558 14.64-14.641 14.64-8.087 0-14.641-6.556-14.641-14.64v-322.105c0-8.080 6.554-14.64 14.641-14.64 8.066-0.015 14.641 6.56 14.641 14.641v0zM526.598 190.951v322.104c0 8.102-6.573 14.64-14.642 14.64-8.086 0-14.64-6.556-14.64-14.64v-322.105c0-8.080 6.572-14.64 14.64-14.64 8.087-0.015 14.642 6.56 14.642 14.641v0zM263.037 542.335c-6.802 0-12.548-4.657-14.167-10.966-0.157 0.087-0.314 0.176-0.47 0.263v-399.254c0-32.341 26.201-58.563 58.573-58.563h409.98c32.342 0 58.577 26.221 58.577 58.563l0 395.318c0 8.102-6.554 14.639-14.641 14.639-8.081 0-14.636-6.554-14.636-14.639v-395.318c0-16.155-13.114-29.282-29.282-29.282h-409.998c-16.164 0-29.278 13.127-29.278 29.282l0 395.318c-0.018 8.085-6.573 14.639-14.659 14.639v0zM219.118 615.553h175.702c0.244 0 0.487 0 0.736 0.020 4.113-0.106 8.243 1.406 11.373 4.533l54.024 54.026h102.096l54.024-54.026c3.13-3.127 7.277-4.64 11.372-4.533 0.249-0.020 0.491-0.020 0.736-0.020h175.701c8.086 0 14.641 6.557 14.641 14.641s-6.554 14.641-14.641 14.641h-168.633l-54.030 54.007c-3.090 3.094-7.167 4.605-11.229 4.535-0.157 0-0.314 0.017-0.491 0.017l-117.142 0c-0.139 0-0.279 0-0.418-0.017-4.048 0.052-8.105-1.441-11.195-4.535l-54.029-54.007-168.599-0c-8.086 0-14.641-6.556-14.641-14.641 0-8.084 6.555-14.641 14.641-14.641v0zM643.735 190.951v322.104c0 8.102-6.554 14.64-14.641 14.64-8.082 0-14.641-6.556-14.641-14.64v-322.105c0-8.080 6.558-14.64 14.641-14.64 8.087-0.015 14.641 6.56 14.641 14.641v0z"  horiz-adv-x="1024" />

    
    <glyph glyph-name="touxiang" unicode="&#58889;" d="M281.62048 404.34176c-2.2016 0-3.9424-0.31744-5.30944-0.86528a20.39808 20.39808 0 0 0 5.86752 0.8704h-0.55808z m609.408-242.80064c0.05632 1.1264 0.2048 2.23232 0.44544 3.29728-0.26112-0.4864-0.39936-1.536-0.44544-3.29728z m40.6528 448.54784c0.01024 0.04608 0.01024 0.1024 0.01024 0.14848v0.52224c0-0.22528 0-0.45568-0.01024-0.67072z m-40.6784 0.06656c0-0.04608 0-0.09216 0.01536-0.13824-0.01536 0.24064-0.01536 0.49152-0.01536 0.7424v-0.60416z m24.53504-610.0736a395.9552 395.9552 0 0 1-37.19168 122.28608 397.6192 397.6192 0 0 1-11.8016 22.20032c-0.01024 0.02048-0.02048 0.04608-0.04608 0.06656a410.71616 410.71616 0 0 1-65.98656 84.25984l-0.01536 0.01536a416.22528 416.22528 0 0 1-17.33632 16.08704c-42.42944 37.18144-91.41248 64.75264-143.64672 81.52064a248.27904 248.27904 0 0 1 27.38688 17.60256 250.66496 250.66496 0 0 1 28.47744 24.51968c47.09376 47.09376 73.0368 109.71648 73.0368 176.32256 0 66.60608-25.94304 129.2288-73.0368 176.31744-46.2336 46.23872-107.45344 72.07936-172.69248 73.0112a268.00128 268.00128 0 0 1-3.10272 0.0256c-1.03936 0-2.0736-0.01536-3.10784-0.0256-65.23904-0.93184-126.45376-26.77248-172.69248-73.0112-47.09376-47.08864-73.03168-109.71648-73.03168-176.31744 0-66.6112 25.93792-129.2288 73.03168-176.32256a250.46528 250.46528 0 0 1 28.47744-24.51968 247.9872 247.9872 0 0 1 27.392-17.60256c-52.23936-16.768-101.2224-44.3392-143.64672-81.52064a414.8736 414.8736 0 0 1-17.34144-16.08704 410.79296 410.79296 0 0 1-66.048-84.34176 396.95872 396.95872 0 0 1-11.79648-22.20032 395.93984 395.93984 0 0 1-37.1968-122.28608 24.9344 24.9344 0 0 1 27.74016-28.0832 24.94976 24.94976 0 0 1 19.37408 20.76672c11.4944 78.86848 49.08544 150.53824 103.1168 205.11744 64.128 64.79872 151.40864 105.5232 245.72928 105.6768h0.53248c94.11584-0.31744 181.19168-41.00608 245.19168-105.6768 54.03136-54.5792 91.62752-126.24384 103.1168-205.11744a24.96 24.96 0 0 1 19.31776-20.75136c0.0256 0 0.03584-0.01536 0.05632-0.01536 0.99328-0.12288 1.98144-0.1792 2.9952-0.1792a24.9344 24.9344 0 0 1 24.74496 28.2624z m-396.4928 345.3952c-0.49664 0-1.00352 0-1.50016 0.01024C424.4736 346.1632 341.49376 410.8288 318.8224 497.5616a185.02656 185.02656 0 0 0-6.1696 47.40096 190.07488 190.07488 0 0 0 6.1696 47.87712c22.79936 88.9088 106.5472 159.57504 200.22272 159.57504h1.0752c93.6704 0 177.41824-70.67136 200.22272-159.57504a190.08 190.08 0 0 0 6.1696-47.87712 185.02656 185.02656 0 0 0-6.1696-47.40096c-22.6816-86.7328-105.65632-151.39328-198.72256-152.07424-0.85504-0.01024-1.71008-0.01024-2.57536-0.01024z"  horiz-adv-x="1024" />

    
    <glyph glyph-name="dizhi" unicode="&#59040;" d="M543.441083 663.565207c-79.004355 0-143.273101-63.10934-143.273101-140.659577 0-77.532841 64.268746-140.573619 143.273101-140.573619 78.996169 0 143.231145 63.040778 143.231145 140.573619-0.001023 77.55433-64.236 140.659577-143.231145 140.659577m0-218.953758c-43.918255 0-79.646991 35.133172-79.646991 78.32488 0 43.182498 35.728736 78.328973 79.646991 78.328973 43.884486 0 79.608106-35.146475 79.608106-78.328973 0-43.191708-35.723619-78.32488-79.608106-78.32488m335.315952 57.417711c0 181.603081-150.422941 329.33882-335.316975 329.338821-184.867428 0-335.226924-147.735739-335.226925-329.338821 0-142.426827 206.437699-429.414073 295.245328-546.171264 9.344832-12.322653 24.308639-19.643386 39.981597-19.643385 15.639189 0 30.632671 7.320733 40.015365 19.643385 88.769766 116.753097 295.30161 403.706575 295.30161 546.171264M548.724413 5.702118l-5.284353-7.02602-5.29254 7.02602C370.506429 228.460528 266.290879 418.656311 266.290879 502.02916c0 150.114926 124.305097 272.246521 277.149181 272.246521 152.806221 0 277.116435-122.131595 277.116435-272.246521 0.030699-83.403548-104.121406-273.568632-271.832082-496.327042"  horiz-adv-x="1024" />

    
    <glyph glyph-name="duigou" unicode="&#58915;" d="M512 880.654089c-274.290101 0-496.646864-222.349538-496.646864-496.654089 0-274.282876 222.349538-496.661314 496.646864-496.661314 274.290101 0 496.654089 222.371213 496.654089 496.661314 0 274.304551-222.363988 496.654089-496.654089 496.654089z m-65.472998-714.292923l-42.641981-42.649207-2.983927-2.983927-210.319904 210.327129 45.640358 45.625909 164.679546-164.686771 386.870133 386.884583 45.640358-45.633133-386.884583-386.884583z"  horiz-adv-x="1024" />

    
    <glyph glyph-name="cha" unicode="&#58885;" d="M512 768c-211.2 0-384-172.8-384-384s172.8-384 384-384 384 172.8 384 384-172.8 384-384 384z m185.6-524.8l-44.8-44.8L512 339.2 371.2 198.4l-44.8 44.8L467.2 384 326.4 524.8l44.8 44.8L512 428.8l140.8 140.8 44.8-44.8L556.8 384l140.8-140.8z"  horiz-adv-x="1024" />

    
    <glyph glyph-name="mobile" unicode="&#59121;" d="M740.377384-62.909539H280.960996c-25.3739 0-45.941332 21.107737-45.941331 47.149856V785.802202c0 26.040073 20.568455 47.149856 45.941331 47.149857h459.416388c25.3739 0 45.941332-21.109784 45.941332-47.149857v-801.561885c0-26.042119-20.568455-47.149856-45.941332-47.149856z m-229.708705 23.574928c25.3739 0 45.941332 21.109784 45.941331 47.149856 0 26.042119-20.568455 47.149856-45.941331 47.149857-25.3739 0-45.941332-21.107737-45.941332-47.149857 0-26.040073 20.568455-47.149856 45.941332-47.149856zM614.037954 785.802202H430.270581c-6.344498 0-11.485589-5.278213-11.485589-11.788487 0-6.512321 5.14109-11.788487 11.485589-11.788488h183.76635c6.342452 0 11.485589 5.276167 11.485589 11.788488 0.001023 6.510274-5.142114 11.788487-11.484566 11.788487z m126.33943-70.726831H280.960996v-612.960413h459.416388v612.960413z"  horiz-adv-x="1024" />

    
    <glyph glyph-name="wode" unicode="&#58884;" d="M944-61.09090875000004c-24 165.8181815625-141.8181815625 298.90909125-298.90909125 349.09090875 104.7272728125 48 176.72727281250002 152.7272728125 176.72727281250002 272.7272728125C821.8181815625 728.7272728125 684.3636359375 864 514.1818184374999 864S206.54545437500002 728.7272728125 206.54545437500002 560.7272728125c0-120 72-224.7272728125 176.72727281250002-272.7272728125-157.09090875-50.1818184375-274.90909124999996-183.27272718749998-298.90909125-346.90909125-2.1818184375-2.1818184375-2.1818184375-6.545454374999999-2.1818174999999997-10.9090903125 0-15.2727271875 13.090908749999999-26.1818184375 28.3636359375-26.1818184375 15.2727271875 0 28.3636359375 13.090908749999999 28.363636875 26.1818184375v2.1818174999999997c26.1818184375 183.27272718749998 185.454545625 322.90909125 377.4545446875 322.90909125s351.2727271875-139.6363640625 377.454545625-320.72727281249996v-2.1818184375c0-15.2727271875 13.090908749999999-26.1818184375 28.363636875-26.181817499999998 15.2727271875 0 28.3636359375 13.090908749999999 28.3636359375 26.181817499999998-4.3636359375 2.1818184375-6.545454374999999 4.3636359375-6.545454374999999 6.5454553125M514.1818184374999 312c-139.6363640625 0-253.09090875 111.27272718750001-253.09090968750002 250.90909125000002 0 137.45454562499998 113.454545625 250.90909125000002 253.09090968750002 250.9090903125 139.6363640625 0 253.09090875-111.27272718750001 253.09090875-250.9090903125s-113.454545625-250.90909125000002-253.09090875-250.90909125000002m0 0"  horiz-adv-x="1024" />

    
    <glyph glyph-name="dianhua" unicode="&#59552;" d="M771.03104-14.99136c-92.73344 0-265.27744 64.2048-446.27968 245.12512C104.32512 450.60096 33.52576 687.16544 107.84768 761.56928c5.05856 5.05856 10.21952 10.48576 15.50336 16.03584 30.57664 32.17408 68.64896 72.21248 117.78048 72.21248 36.4544 0 71.35232-21.4016 106.72128-65.41312 93.73696-116.69504 61.76768-163.84 2.29376-222.45376l-9.07264-8.99072c-8.64256-8.62208-1.47456-32.70656 19.16928-64.43008 20.91008-32.1536 55.54176-72.47872 102.97344-119.88992 109.48608-109.40416 156.03712-125.7472 174.03904-125.7472 5.95968 0 8.64256 1.92512 10.32192 3.60448l8.97024 9.03168c28.75392 29.184 55.93088 56.75008 98.65216 56.75008 34.4064 0 73.74848-18.75968 123.84256-59.04384 42.496-34.18112 63.85664-67.85024 65.31072-102.99392 2.10944-50.95424-39.05536-90.07104-72.13056-121.50784-5.55008-5.28384-10.9568-10.42432-15.99488-15.44192-18.51392-18.51392-47.94368-28.28288-85.1968-28.28288zM241.11104 808.8576c-31.55968 0-61.60384-31.58016-88.10496-59.47392-5.50912-5.81632-10.91584-11.48928-16.19968-16.77312-43.49952-43.54048-6.36928-250.1632 216.92416-473.53856 161.09568-161.03424 325.67296-233.12384 417.30048-233.12384 25.76384 0 45.69088 5.77536 56.19712 16.2816 5.28384 5.28384 10.93632 10.67008 16.73216 16.1792 28.48768 27.05408 60.78464 57.71264 59.43296 90.09152-0.9216 22.3232-17.77664 46.81728-50.0736 72.78592-41.84064 33.64864-73.9328 49.99168-98.16064 49.99168-24.39168 0-41.43104-16.09728-69.48864-44.544l-9.19552-9.27744c-10.24-10.19904-23.79776-15.5648-39.26016-15.5648-44.46208 0-108.9536 43.76576-202.99776 137.74848-49.43872 49.41824-85.89312 91.97568-108.35968 126.52544-33.87392 52.08064-38.5024 91.01312-13.78304 115.73248l9.29792 9.19552c48.00512 47.3088 72.11008 71.0656-5.46816 167.6288-26.70592 33.25952-51.87584 50.13504-74.79296 50.13504z"  horiz-adv-x="1024" />

    
    <glyph glyph-name="xuqiu" unicode="&#58989;" d="M252.15999968749998 707.712h57.7600003125V649.9200000000001H252.15999968749998zM341.216 707.712h397.05600000000004V649.9200000000001H341.216zM252.15999968749998 535.968h57.7600003125v-57.7600003125H252.15999968749998zM341.216 535.968h397.05600000000004v-57.7600003125H341.216zM252.15999968749998 364.2559996875001h57.7600003125v-57.727999687499995H252.15999968749998zM252.15999968749998 192.57600000000002h57.7600003125v-57.7600003125H252.15999968749998zM755.7120003125 66.20800031249996a120.19200000000001 120.19200000000001 0 0 1 0 240.31999968750003 120.19200000000001 120.19200000000001 0 0 1 0-240.31999968750003zM850.2720003125 71.07199968750001c-26.304000000000002-20.256-59.263999687500004-32.3200003125-95.072000625-32.319999375s-68.73599999999999 12.0640003125-95.136 32.319999375a182.2399996875 182.2399996875 0 0 1-87.135999375-152.223999375h364.575999375a182.208 182.208 0 0 1-87.231999375 152.223999375zM139.3920003125 32.76799968749992V733.8240000000001c0 34.144000312500005 27.36 61.75999968749999 61.056000000000004 61.75999968749999h588.1279996875c33.696 0 61.056000000000004-27.6160003125 61.056000000000004-61.75999968749999v-427.13599968750003a160.76800031250002 160.76800031250002 0 0 0 52.9279996875-66.72V782.0479996874999A70.176 70.176 0 0 1 832.3839996875 852.2239996875H156.67200031250002a70.176 70.176 0 0 1-70.176-70.176v-796.095999375c0-38.7520003125 31.423999687499997-70.1440003125 70.176-70.1440003125h382.6879996875a314.4640003125 314.4640003125 0 0 0 11.328 55.2H200.48000000000002a61.44 61.44 0 0 0-61.0879996875 61.75999968749999zM738.272 341.72800031249994v22.527999375H341.216v-57.727999687499995h315.3280003125a155.6800003125 155.6800003125 0 0 0 81.7279996875 35.2000003125zM599.2959996875 185.31199968750002c0 2.4640003125 0.2560003125 4.8319996875 0.384 7.2640003125H341.216v-57.7600003125h266.5600003125a156.96 156.96 0 0 0-8.480000625 50.496z"  horiz-adv-x="1024" />

    


  </font>
</defs>
</svg>
